Coordinates
version=1
nRows=5
nColumns=63
inDegrees=yes

Units are S.I. units (second, meters, Newtons, ...)
If the header above contains a line with 'inDegrees', this indicates whether rotational values are in degrees (yes) or radians (no).

endheader
time	pelvis_tilt	pelvis_list	pelvis_rotation	pelvis_tx	pelvis_ty	pelvis_tz	hip_flexion_r	hip_adduction_r	hip_rotation_r	knee_angle_r	knee_angle_r_beta	ankle_angle_r	subtalar_angle_r	mtp_angle_r	hip_flexion_l	hip_adduction_l	hip_rotation_l	knee_angle_l	knee_angle_l_beta	ankle_angle_l	subtalar_angle_l	mtp_angle_l	L5_S1_Flex_Ext	L5_S1_Lat_Bending	L5_S1_axial_rotation	L4_L5_Flex_Ext	L4_L5_Lat_Bending	L4_L5_axial_rotation	L3_L4_Flex_Ext	L3_L4_Lat_Bending	L3_L4_axial_rotation	L2_L3_Flex_Ext	L2_L3_Lat_Bending	L2_L3_axial_rotation	L1_L2_Flex_Ext	L1_L2_Lat_Bending	L1_L2_axial_rotation	L1_T12_Flex_Ext	L1_T12_Lat_Bending	L1_T12_axial_rotation	Abs_r3	Abs_r2	Abs_r1	Abs_t1	Abs_t2	neck_flexion	neck_bending	neck_rotation	arm_flex_r	arm_add_r	arm_rot_r	elbow_flex_r	pro_sup_r	wrist_flex_r	wrist_dev_r	arm_flex_l	arm_add_l	arm_rot_l	elbow_flex_l	pro_sup_l	wrist_flex_l	wrist_dev_l
      2.53333333	     -2.32355309	     -2.00704490	     95.37408715	      0.29277285	      0.89562260	      0.72884478	     -4.11657406	      0.27393456	      4.80509415	      0.82222334	      0.01435050	     27.38673277	     -2.14598262	      0.00000000	     -2.84938269	     -1.47053403	      6.14770335	      1.01002698	      0.01762830	     29.83305385	      0.46055533	      0.00000000	      0.19807763	     -0.31936348	      1.07330311	      0.36784997	     -0.42475342	      1.14038455	      0.32542174	     -0.77650036	      1.14038455	      0.22638292	     -0.77650036	      0.93914022	      0.18393489	     -0.65124600	      0.87205878	      0.11318156	     -0.49469402	      0.80497733	      1.41484870	     -3.61270351	      5.96938991	      0.00000000	      0.00000000	     12.18908053	      1.20703832	    -21.26777891	      2.17391490	    -10.59022493	     33.27774107	     53.46691322	     88.05479745	      1.89198369	      2.76752236	     14.54814906	    -13.62498616	     57.73812423	     52.96854204	     58.48287477	     11.31248809	     17.53207868
      2.55000000	     -2.29710147	     -2.11989637	     95.57618147	      0.29211234	      0.89570603	      0.72928932	     -4.00010532	      0.26672242	      4.38545204	      0.73411473	      0.01281272	     27.45930834	     -1.68353461	      0.00000000	     -2.62533792	     -1.48150038	      5.04801185	      1.11063883	      0.01938430	     30.31809755	      2.24296571	      0.00000000	      0.19231827	     -0.30459145	      1.03242731	      0.35715426	     -0.40510662	      1.09695401	      0.31595969	     -0.74058364	      1.09695401	      0.21980055	     -0.74058364	      0.90337389	      0.17858675	     -0.62112287	      0.83884719	      0.10989066	     -0.47181215	      0.77432048	      1.37371019	     -3.44559935	      5.74205095	      0.00000000	      0.00000000	     12.66690958	      0.99259966	    -21.31582128	      1.82411830	    -10.61365611	     32.61304570	     53.90690606	     88.06689345	      2.63621508	      3.32542741	     14.44846539	    -13.61529699	     57.55617773	     52.98743617	     60.11699905	     12.06527419	     16.46818223
      2.56666667	     -2.20854587	     -2.30094813	     95.79866066	      0.29139507	      0.89563843	      0.72982108	     -3.80648514	      0.32105636	      4.69780911	      0.63492212	      0.01108148	     27.30306160	     -2.21611917	      0.00000000	     -2.33172986	     -1.54135277	      4.51198391	      1.22099914	      0.02131046	     30.55082764	      3.12127792	      0.00000000	      0.18841060	     -0.28111099	      0.99660492	      0.34989733	     -0.37387761	      1.05889273	      0.30953978	     -0.68349325	      1.05889273	      0.21533448	     -0.68349325	      0.87202931	      0.17495809	     -0.57324152	      0.80974150	      0.10765782	     -0.43544092	      0.74745369	      1.34579811	     -3.17998369	      5.54281761	      0.00000000	      0.00000000	     13.23421774	      0.71795126	    -21.28641468	      1.27527445	    -10.61145106	     31.36411368	     54.64223878	     87.95501448	      3.23251616	      3.95273181	     14.37167253	    -13.57095037	     57.31826114	     53.16237431	     61.27570846	     12.55562928	     15.66980020
      2.58333333	     -2.10115533	     -2.47891951	     96.03836359	      0.29065228	      0.89548717	      0.73042182	     -3.57062319	      0.37617263	      2.90089938	      0.63075037	      0.01100867	     27.66803518	      0.09839941	      0.00000000	     -2.01909061	     -1.62237874	      3.56954412	      1.40055392	      0.02444428	     30.80775285	      4.41414451	      0.00000000	      0.17797608	     -0.25446232	      0.98794202	      0.33051938	     -0.33843489	      1.04968840	      0.29239691	     -0.61869968	      1.04968840	      0.20340886	     -0.61869968	      0.86444927	      0.16526859	     -0.51889956	      0.80270289	      0.10169553	     -0.39416213	      0.74095652	      1.27126536	     -2.87852865	      5.49463716	      0.00000000	      0.00000000	     13.78150252	      0.23867568	    -21.39566987	      0.48228680	    -10.45806736	     29.21974833	     55.62862317	     87.74074958	      4.24593891	      5.15636379	     14.55506630	    -13.51969427	     57.65252983	     53.35985541	     60.99619937	     12.70857203	     15.07109996
      2.60000000	     -1.97069822	     -2.68114629	     96.26882955	      0.28986537	      0.89525193	      0.73097604	     -3.32381396	      0.45408375	      1.97133568	      0.59502532	      0.01038515	     27.80918857	      1.19547649	      0.00000000	     -1.68079498	     -1.71444474	      2.77811012	      1.59273325	      0.02779844	     30.96997646	      5.32414117	      0.00000000	      0.17491638	     -0.22603846	      0.96628683	      0.32483721	     -0.30063115	      1.02667976	      0.28737013	     -0.54958990	      1.02667976	      0.19991193	     -0.54958990	      0.84550098	      0.16242735	     -0.46093762	      0.78510805	      0.09994722	     -0.35013357	      0.72471512	      1.24941023	     -2.55699221	      5.37419747	      0.00000000	      0.00000000	     14.20621917	     -0.26131092	    -21.48749130	     -0.23925656	    -10.28025669	     27.25181983	     56.56859490	     87.35612218	      4.98097103	      6.26781407	     14.53018818	    -13.35893842	     57.37016809	     53.44390425	     61.41088473	     13.43684661	     14.78068049
